<?xml version="1.0" encoding="UTF-8"?>
<svg width="175px" height="146px" viewBox="0 0 175 146" version="1.1" xmlns="http://www.w3.org/2000/svg" xmlns:xlink="http://www.w3.org/1999/xlink">
    <!-- Generator: Sketch 52.6 (67491) - http://www.bohemiancoding.com/sketch -->
    <title>Group 9 Copy 2</title>
    <desc>Created with Sketch.</desc>
    <g id="Page-1" stroke="none" stroke-width="1" fill="none" fill-rule="evenodd">
        <g id="Group-9-Copy-2" transform="translate(-12.000000, -13.000000)" fill="#427EC0">
            <path d="M45.3136235,67.5463484 L59.587435,67.5463484 C61.8984446,67.5463484 64.1414497,67.2650055 66.3165175,66.7023113 C68.4915854,66.1396172 70.4287261,65.2060704 72.1279979,63.901643 C73.8272697,62.5972156 75.1866667,60.8963701 76.2062298,58.7990554 C77.2257928,56.7017408 77.7355667,54.1440784 77.7355667,51.1259915 C77.7355667,48.3636746 77.378725,45.8699538 76.6650308,43.6447541 C75.9513367,41.4195544 74.7788568,39.5140959 73.1475559,37.9283214 C71.516255,36.3425469 69.3582122,35.1276573 66.6733628,34.283616 C63.9885134,33.4395748 60.6749832,33.0175605 56.7326727,33.0175605 L45.3136235,33.0175605 L45.3136235,67.5463484 Z M27.8128529,12.9050901 L60.1837915,12.9050901 C65.0184364,12.9050901 69.520194,13.6470333 73.6891994,15.1309419 C77.8582047,16.6148506 81.4666174,18.8406802 84.5145457,21.8084975 C87.562474,24.7763148 89.9447271,28.4860308 91.6613763,32.9377567 C93.3780256,37.3894827 94.2363374,42.6168098 94.2363374,48.6198948 C94.2363374,53.8810255 93.5356747,58.7373809 92.1343284,63.1891069 C90.732982,67.6408329 88.6134775,71.4854476 85.7757511,74.7230665 C82.9380248,77.9606854 79.3996784,80.5068996 75.1606057,82.3617854 C70.921533,84.2166712 65.9293115,85.1441002 60.1837915,85.1441002 L27.8128529,85.1441002 L27.8128529,12.9050901 Z" id="D-Copy-8" transform="translate(61.024595, 49.024595) rotate(-135.000000) translate(-61.024595, -49.024595) "></path>
            <path d="M122.301905,141.358848 L136.575716,141.358848 C138.886726,141.358848 141.129731,141.077506 143.304799,140.514811 C145.479867,139.952117 147.417007,139.01857 149.116279,137.714143 C150.815551,136.409716 152.174948,134.70887 153.194511,132.611555 C154.214074,130.514241 154.723848,127.956578 154.723848,124.938491 C154.723848,122.176175 154.367006,119.682454 153.653312,117.457254 C152.939618,115.232054 151.767138,113.326596 150.135837,111.740821 C148.504536,110.155047 146.346493,108.940157 143.661644,108.096116 C140.976795,107.252075 137.663264,106.83006 133.720954,106.83006 L122.301905,106.83006 L122.301905,141.358848 Z M104.801134,86.7175901 L137.172073,86.7175901 C142.006718,86.7175901 146.508475,87.4595333 150.677481,88.9434419 C154.846486,90.4273506 158.454899,92.6531802 161.502827,95.6209975 C164.550755,98.5888148 166.933008,102.298531 168.649658,106.750257 C170.366307,111.201983 171.224619,116.42931 171.224619,122.432395 C171.224619,127.693525 170.523956,132.549881 169.12261,137.001607 C167.721263,141.453333 165.601759,145.297948 162.764032,148.535567 C159.926306,151.773185 156.38796,154.3194 152.148887,156.174285 C147.909814,158.029171 142.917593,158.9566 137.172073,158.9566 L104.801134,158.9566 L104.801134,86.7175901 Z" id="D-Copy-10" transform="translate(138.012876, 122.837095) rotate(-315.000000) translate(-138.012876, -122.837095) "></path>
            <g id="Group-Copy-3" transform="translate(0.000000, 34.000000)">
                <path d="M93.2728857,76.378778 C93.2728857,79.5705962 92.9388597,83.0815435 92.2707978,86.9117253 C91.6027358,90.741907 90.0757599,94.3212494 87.6898244,97.6498598 C85.3038888,100.97847 81.8681931,103.75987 77.3826342,105.994143 C72.8970754,108.228415 66.8368899,109.345535 59.2018961,109.345535 C54.9072121,109.345535 50.7557465,108.775576 46.7473747,107.635641 C42.7390029,106.495706 39.1601533,104.717434 36.0107183,102.300772 C32.8612834,99.8841092 30.3322296,96.7835324 28.4234811,92.998948 C26.5147327,89.2143636 25.5603728,84.6318935 25.5603728,79.2514 L25.5603728,70.7703256 L45.8884422,70.7703256 L45.8884422,75.1476543 C45.8884422,77.5187192 46.0793142,79.7073617 46.4610639,81.7136474 C46.8428136,83.7199331 47.5108655,85.42981 48.4652397,86.8433295 C49.4196139,88.256849 50.7318588,89.3739686 52.4020137,90.1947218 C54.0721686,91.015475 56.2433374,91.4258455 58.9155853,91.4258455 C61.8741454,91.4258455 64.1646092,90.9242816 65.7870453,89.9211388 C67.4094815,88.9179959 68.5785724,87.6184894 69.2943531,86.0225804 C70.0101338,84.4266713 70.4395957,82.693996 70.5827519,80.8245025 C70.725908,78.955009 70.797485,77.1539387 70.797485,75.4212374 L70.797485,9.48772349 L93.2728857,9.48772349 L93.2728857,76.378778 Z" id="J-Copy" transform="translate(59.416629, 59.416629) rotate(-315.000000) translate(-59.416629, -59.416629) "></path>
            </g>
            <g id="Group-Copy-4" transform="translate(139.333984, 77.232422) rotate(-180.000000) translate(-139.333984, -77.232422) translate(79.833984, 17.732422)">
                <path d="M93.2728857,76.378778 C93.2728857,79.5705962 92.9388597,83.0815435 92.2707978,86.9117253 C91.6027358,90.741907 90.0757599,94.3212494 87.6898244,97.6498598 C85.3038888,100.97847 81.8681931,103.75987 77.3826342,105.994143 C72.8970754,108.228415 66.8368899,109.345535 59.2018961,109.345535 C54.9072121,109.345535 50.7557465,108.775576 46.7473747,107.635641 C42.7390029,106.495706 39.1601533,104.717434 36.0107183,102.300772 C32.8612834,99.8841092 30.3322296,96.7835324 28.4234811,92.998948 C26.5147327,89.2143636 25.5603728,84.6318935 25.5603728,79.2514 L25.5603728,70.7703256 L45.8884422,70.7703256 L45.8884422,75.1476543 C45.8884422,77.5187192 46.0793142,79.7073617 46.4610639,81.7136474 C46.8428136,83.7199331 47.5108655,85.42981 48.4652397,86.8433295 C49.4196139,88.256849 50.7318588,89.3739686 52.4020137,90.1947218 C54.0721686,91.015475 56.2433374,91.4258455 58.9155853,91.4258455 C61.8741454,91.4258455 64.1646092,90.9242816 65.7870453,89.9211388 C67.4094815,88.9179959 68.5785724,87.6184894 69.2943531,86.0225804 C70.0101338,84.4266713 70.4395957,82.693996 70.5827519,80.8245025 C70.725908,78.955009 70.797485,77.1539387 70.797485,75.4212374 L70.797485,9.48772349 L93.2728857,9.48772349 L93.2728857,76.378778 Z" id="J-Copy" transform="translate(59.416629, 59.416629) rotate(-315.000000) translate(-59.416629, -59.416629) "></path>
            </g>
        </g>
    </g>
</svg>